<svg viewBox="0 0 575 98" width="100%" height="100%" xmlns="http://www.w3.org/2000/svg" fill="#fff"><defs><path d="M48.781 6.446c-.283 0-.565.003-.847.009-12.964.339-23.406 11.01-23.406 24.078 0 5.242 1.68 10.099 4.53 14.058a30.073 30.073 0 0 1 19.512-7.165h19.456V6.446H48.781zM29.058 53.655a23.987 23.987 0 0 0-4.53 14.059c0 13.066 10.439 23.736 23.4 24.078.284.006.568.009.853.009h19.245V60.82H48.57a30.073 30.073 0 0 1-19.512-7.165zm-6.967 28.679a30.137 30.137 0 0 1-3.763-14.62 30.176 30.176 0 0 1 6.382-18.591 30.171 30.171 0 0 1-6.382-18.59c0-5.327 1.38-10.336 3.801-14.689C12.422 23.656 6.2 35.634 6.2 49.037c0 13.441 6.205 25.452 15.891 33.297zM48.57.247h25.657v43.378H48.57a23.912 23.912 0 0 0-15.272 5.498 23.906 23.906 0 0 0 15.272 5.498h25.657V98H48.57c-.263 0-.525-.003-.786-.01C21.344 97.455 0 75.701 0 49.037 0 22.466 21.348.787 47.79.257c.259-.007.519-.01.78-.01zm515.586 49.537c0-10.415-7.165-15.384-14.332-15.384-7.262 0-14.525 5.065-14.525 15.289 0 10.415 7.359 15.67 14.62 15.67 7.262 0 14.237-5.255 14.237-15.575zm10.511.096c0 16.339-11.562 25.13-23.41 25.13-5.637 0-11.753-2.102-15.958-6.88v26.06h-10.606V25.801h10.416v6.593c3.44-4.587 9.173-7.453 15.957-7.453 11.275 0 23.601 8.313 23.601 24.939zM509.831 3.346c-4.3 0-7.549 3.249-7.549 7.549 0 4.299 3.249 7.549 7.549 7.549 4.299 0 7.644-3.25 7.644-7.549 0-4.3-3.345-7.549-7.644-7.549zm-5.256 70.613h10.606V25.801h-10.606v48.158zM479.733 31.63v-5.829h-10.414v48.158h10.606V47.301c0-8.314 4.491-11.562 9.842-11.562 2.006 0 4.108.382 6.115 1.242l2.389-10.702c-1.815-.669-4.109-1.147-6.307-1.147-4.682 0-9.65 1.816-12.231 6.498zm-27.325 34.112c-3.727 0-6.784-2.006-6.784-7.358V35.547h14.237v-9.746h-14.237V13.475h-10.511v12.326h-10.415v9.746h10.415v23.411c0 11.083 7.644 16.052 15.862 16.052 3.917 0 8.122-1.146 11.657-3.248l-3.823-7.836c-2.102 1.051-4.299 1.816-6.401 1.816zm-57.066-19.971c-.191-7.93-5.733-11.752-11.849-11.752-6.211 0-12.039 3.917-12.899 11.752h24.748zm10.606 2.771c0 1.625 0 3.536-.382 6.02H370.88c1.625 7.549 7.74 10.511 13.951 10.511 5.255 0 10.224-2.102 13.569-6.784l6.784 6.593c-5.352 6.784-12.708 10.128-20.735 10.128-12.517 0-25.035-8.886-25.035-25.417 0-16.434 12.04-25.034 24.557-25.034 11.753 0 21.977 7.739 21.977 23.983zM339.612 31.63v-5.829h-10.415v48.158h10.606V47.301c0-8.314 4.491-11.562 9.842-11.562 2.006 0 4.108.382 6.115 1.242l2.389-10.702c-1.815-.669-4.109-1.147-6.307-1.147-4.682 0-9.651 1.816-12.23 6.498zm-30.564 18.728c0 9.364-5.925 14.141-12.04 14.141-5.447 0-9.46-3.726-9.46-11.083V25.801h-10.511v30.29c0 13.187 9.269 18.919 17.965 18.919 6.306 0 10.988-2.771 14.237-7.452v6.401h10.415V25.801h-10.606v24.557zm-49.112 15.384c-3.727 0-6.785-2.006-6.785-7.358V35.547h14.429v-9.746h-14.429V13.475h-10.51v12.326h-9.257v9.746h9.257v23.411c0 11.083 7.644 16.052 15.862 16.052 3.917 0 8.121-1.146 11.657-3.248l-3.822-7.836c-2.102 1.051-4.3 1.816-6.402 1.816zm-29.88 0c-3.44 0-6.116-1.911-6.116-7.358V13.475h-10.606v45.483c0 11.466 7.167 16.052 15.002 16.052 3.153 0 6.402-.764 9.365-2.197l-3.441-7.931c-1.433.573-2.866.86-4.204.86zm-36.872-15.384c0 9.364-5.924 14.141-12.039 14.141-5.447 0-9.46-3.726-9.46-11.083V25.801h-10.51v30.29c0 13.187 9.268 18.919 17.963 18.919 6.306 0 10.989-2.771 14.237-7.452v6.401h10.416V25.801h-10.607v24.557zm-44.925 6.02l7.74 5.351c-4.491 8.6-13.282 13.281-22.073 13.281-12.135 0-24.174-8.791-24.174-25.226 0-16.721 12.23-25.225 24.556-25.225 7.358 0 14.811 3.057 19.684 9.555l-7.071 6.689c-2.962-4.587-7.644-6.498-12.135-6.498-7.262 0-14.619 5.16-14.619 15.384 0 10.033 7.262 15.288 14.428 15.288 4.586 0 10.415-2.197 13.664-8.599z" id="a"></path></defs><path d="M48.781 6.446c-.283 0-.565.003-.847.009-12.964.339-23.406 11.01-23.406 24.078 0 5.242 1.68 10.099 4.53 14.058a30.073 30.073 0 0 1 19.512-7.165h19.456V6.446H48.781zM29.058 53.655a23.987 23.987 0 0 0-4.53 14.059c0 13.066 10.439 23.736 23.4 24.078.284.006.568.009.853.009h19.245V60.82H48.57a30.073 30.073 0 0 1-19.512-7.165zm-6.967 28.679a30.137 30.137 0 0 1-3.763-14.62 30.176 30.176 0 0 1 6.382-18.591 30.171 30.171 0 0 1-6.382-18.59c0-5.327 1.38-10.336 3.801-14.689C12.422 23.656 6.2 35.634 6.2 49.037c0 13.441 6.205 25.452 15.891 33.297zM48.57.247h25.657v43.378H48.57a23.912 23.912 0 0 0-15.272 5.498 23.906 23.906 0 0 0 15.272 5.498h25.657V98H48.57c-.263 0-.525-.003-.786-.01C21.344 97.455 0 75.701 0 49.037 0 22.466 21.348.787 47.79.257c.259-.007.519-.01.78-.01zm515.586 49.537c0-10.415-7.165-15.384-14.332-15.384-7.262 0-14.525 5.065-14.525 15.289 0 10.415 7.359 15.67 14.62 15.67 7.262 0 14.237-5.255 14.237-15.575zm10.511.096c0 16.339-11.562 25.13-23.41 25.13-5.637 0-11.753-2.102-15.958-6.88v26.06h-10.606V25.801h10.416v6.593c3.44-4.587 9.173-7.453 15.957-7.453 11.275 0 23.601 8.313 23.601 24.939zM509.831 3.346c-4.3 0-7.549 3.249-7.549 7.549 0 4.299 3.249 7.549 7.549 7.549 4.299 0 7.644-3.25 7.644-7.549 0-4.3-3.345-7.549-7.644-7.549zm-5.256 70.613h10.606V25.801h-10.606v48.158zM479.733 31.63v-5.829h-10.414v48.158h10.606V47.301c0-8.314 4.491-11.562 9.842-11.562 2.006 0 4.108.382 6.115 1.242l2.389-10.702c-1.815-.669-4.109-1.147-6.307-1.147-4.682 0-9.65 1.816-12.231 6.498zm-27.325 34.112c-3.727 0-6.784-2.006-6.784-7.358V35.547h14.237v-9.746h-14.237V13.475h-10.511v12.326h-10.415v9.746h10.415v23.411c0 11.083 7.644 16.052 15.862 16.052 3.917 0 8.122-1.146 11.657-3.248l-3.823-7.836c-2.102 1.051-4.299 1.816-6.401 1.816zm-57.066-19.971c-.191-7.93-5.733-11.752-11.849-11.752-6.211 0-12.039 3.917-12.899 11.752h24.748zm10.606 2.771c0 1.625 0 3.536-.382 6.02H370.88c1.625 7.549 7.74 10.511 13.951 10.511 5.255 0 10.224-2.102 13.569-6.784l6.784 6.593c-5.352 6.784-12.708 10.128-20.735 10.128-12.517 0-25.035-8.886-25.035-25.417 0-16.434 12.04-25.034 24.557-25.034 11.753 0 21.977 7.739 21.977 23.983zM339.612 31.63v-5.829h-10.415v48.158h10.606V47.301c0-8.314 4.491-11.562 9.842-11.562 2.006 0 4.108.382 6.115 1.242l2.389-10.702c-1.815-.669-4.109-1.147-6.307-1.147-4.682 0-9.651 1.816-12.23 6.498zm-30.564 18.728c0 9.364-5.925 14.141-12.04 14.141-5.447 0-9.46-3.726-9.46-11.083V25.801h-10.511v30.29c0 13.187 9.269 18.919 17.965 18.919 6.306 0 10.988-2.771 14.237-7.452v6.401h10.415V25.801h-10.606v24.557zm-49.112 15.384c-3.727 0-6.785-2.006-6.785-7.358V35.547h14.429v-9.746h-14.429V13.475h-10.51v12.326h-9.257v9.746h9.257v23.411c0 11.083 7.644 16.052 15.862 16.052 3.917 0 8.121-1.146 11.657-3.248l-3.822-7.836c-2.102 1.051-4.3 1.816-6.402 1.816zm-29.88 0c-3.44 0-6.116-1.911-6.116-7.358V13.475h-10.606v45.483c0 11.466 7.167 16.052 15.002 16.052 3.153 0 6.402-.764 9.365-2.197l-3.441-7.931c-1.433.573-2.866.86-4.204.86zm-36.872-15.384c0 9.364-5.924 14.141-12.039 14.141-5.447 0-9.46-3.726-9.46-11.083V25.801h-10.51v30.29c0 13.187 9.268 18.919 17.963 18.919 6.306 0 10.989-2.771 14.237-7.452v6.401h10.416V25.801h-10.607v24.557zm-44.925 6.02l7.74 5.351c-4.491 8.6-13.282 13.281-22.073 13.281-12.135 0-24.174-8.791-24.174-25.226 0-16.721 12.23-25.225 24.556-25.225 7.358 0 14.811 3.057 19.684 9.555l-7.071 6.689c-2.962-4.587-7.644-6.498-12.135-6.498-7.262 0-14.619 5.16-14.619 15.384 0 10.033 7.262 15.288 14.428 15.288 4.586 0 10.415-2.197 13.664-8.599z" id="a"></path></svg>