<?xml version="1.0" encoding="UTF-8"?>
<!DOCTYPE svg PUBLIC "-//W3C//DTD SVG 1.1//EN" "http://www.w3.org/Graphics/SVG/1.1/DTD/svg11.dtd">
<!-- Creator: CorelDRAW X6 -->
<svg xmlns="http://www.w3.org/2000/svg" xml:space="preserve" width="2.44444in" height="1.72222in" version="1.1" style="shape-rendering:geometricPrecision; text-rendering:geometricPrecision; image-rendering:optimizeQuality; fill-rule:evenodd; clip-rule:evenodd"
viewBox="0 0 2444 1722"
 xmlns:xlink="http://www.w3.org/1999/xlink">
 <defs>
  <style type="text/css">
   <![CDATA[
    .fil0 {fill:#000000;fill-rule:nonzero}
    .fil1 {fill:#FEFEFE;fill-rule:nonzero}
   ]]>
  </style>
 </defs>
 <g id="Layer_x0020_1">
  <metadata id="CorelCorpID_0Corel-Layer"/>
  <path class="fil0" d="M2393 269c-28,-106 -111,-189 -216,-218 -191,-51 -955,-51 -955,-51 0,0 -764,0 -955,51 -105,28 -188,112 -216,218 -51,192 -51,592 -51,592 0,0 0,400 51,592 28,106 111,189 216,218 191,51 955,51 955,51 0,0 764,0 955,-51 105,-28 188,-112 216,-218 51,-192 51,-592 51,-592 0,0 0,-400 -51,-592z"/>
  <polygon class="fil1" points="972,1225 1611,861 972,498 "/>
 </g>
</svg>
